<?xml version="1.0" encoding="UTF-8"?>
<svg width="460px" height="270px" viewBox="0 0 460 270" version="1.1" xmlns="http://www.w3.org/2000/svg" xmlns:xlink="http://www.w3.org/1999/xlink">
    <!-- Generator: Sketch 51.1 (57501) - http://www.bohemiancoding.com/sketch -->
    <title>image 01</title>
    <desc>Created with Sketch.</desc>
    <defs></defs>
    <g id="Page-1" stroke="none" stroke-width="1" fill="none" fill-rule="evenodd">
        <g id="O-Click-Through" transform="translate(-250.000000, -1656.000000)">
            <g id="Mission-&amp;-Benefits" transform="translate(250.000000, 1330.000000)">
                <g id="Benefit-01" transform="translate(0.000000, 326.000000)">
                    <g id="image-01">
                        <rect id="Rectangle" fill="#F5F5F5" x="0" y="0" width="460" height="270"></rect>
                        <g id="photo-icon-copy-2" transform="translate(205.000000, 115.000000)" fill="#3B3D40" fill-opacity="0.25" fill-rule="nonzero">
                            <path d="M48.313253,38.7842402 L1.20481928,38.7842402 C0.542168675,38.7842402 0,38.2439024 0,37.5834897 L0,8.94559099 C0,8.28517824 0.542168675,7.74484053 1.20481928,7.74484053 L12.5903614,7.74484053 L13.9759036,2.8217636 C14.5180723,1.14071295 16.0240964,0 17.7710843,0 L31.746988,0 C33.4939759,0 35.060241,1.14071295 35.5421687,2.8217636 L36.9277108,7.74484053 L48.313253,7.74484053 C48.9759036,7.74484053 49.5180723,8.28517824 49.5180723,8.94559099 L49.5180723,37.5834897 C49.5180723,38.2439024 48.9759036,38.7842402 48.313253,38.7842402 Z M2.40963855,36.3827392 L47.1686747,36.3827392 L47.1686747,10.1463415 L36.0240964,10.1463415 C35.4819277,10.1463415 35,9.78611632 34.8795181,9.24577861 L33.253012,3.48217636 C33.0722892,2.88180113 32.4698795,2.40150094 31.746988,2.40150094 L17.7710843,2.40150094 C17.1084337,2.40150094 16.4457831,2.8217636 16.2650602,3.48217636 L14.6385542,9.24577861 C14.5180723,9.78611632 14.0361446,10.1463415 13.4939759,10.1463415 L2.40963855,10.1463415 L2.40963855,36.3827392 Z" id="Shape"></path>
                            <path d="M24.7590361,32.5403377 C18.4939759,32.5403377 13.4337349,27.4971857 13.4337349,21.2532833 C13.4337349,15.0694184 18.4939759,9.96622889 24.7590361,9.96622889 C31.0240964,9.96622889 36.0843373,15.0093809 36.0843373,21.2532833 C36.0843373,27.4971857 31.0240964,32.5403377 24.7590361,32.5403377 Z M24.7590361,12.4277674 C19.8192771,12.4277674 15.8433735,16.3902439 15.8433735,21.3133208 C15.8433735,26.1763602 19.8192771,30.1988743 24.7590361,30.1988743 C29.6987952,30.1988743 33.6746988,26.2363977 33.6746988,21.3133208 C33.6746988,16.3902439 29.6987952,12.4277674 24.7590361,12.4277674 Z" id="Shape"></path>
                        </g>
                    </g>
                </g>
            </g>
        </g>
    </g>
</svg>