<?xml version="1.0" encoding="UTF-8"?>
<svg width="36px" height="34px" viewBox="0 0 36 34" version="1.1" xmlns="http://www.w3.org/2000/svg" xmlns:xlink="http://www.w3.org/1999/xlink">
    <title>logo-icon</title>
    <g id="Page-1" stroke="none" stroke-width="1" fill="none" fill-rule="evenodd">
        <g id="logo-icon" fill="#3246D3">
            <path d="M32,20 C32,27.732 25.732,34 18,34 C10.268,34 4.00003,27.732 4.00003,20 C4.00003,12.268 10.268,6 18,6 C25.732,6 32,12.268 32,20 Z M7.75787,20 C7.75787,25.6566 12.3434,30.2422 18,30.2422 C23.6566,30.2422 28.2422,25.6566 28.2422,20 C28.2422,14.3434 23.6566,9.75784 18,9.75784 C12.3434,9.75784 7.75787,14.3434 7.75787,20 Z" id="Shape" fill-rule="nonzero"></path>
            <rect id="Rectangle" fill-rule="nonzero" transform="translate(18.500000, 17.500000) rotate(-180.000000) translate(-18.500000, -17.500000) " x="17" y="14" width="3" height="7"></rect>
            <path d="M35.1844,5.29456 C35.1844,3.47502 33.7094,2 31.8898,2 C30.0703,2 28.5953,3.47502 28.5953,5.29456 C28.5953,5.35668 28.597,5.4184 28.6004,5.47968 C28.6504,6.38246 28.5881,7.37968 27.9487,8.01902 L25.6211,10.3467 C25.1329,10.8349 25.1329,11.6263 25.6211,12.1145 C26.1092,12.6026 26.9007,12.6026 27.3888,12.1145 L30.4116,9.09173 C30.7929,8.71038 31.3505,8.58912 31.8898,8.58912 C33.7094,8.58912 35.1844,7.11409 35.1844,5.29456 Z" id="Path"></path>
            <path d="M8.00000095,4 C8.00000095,1.79086 6.20914,0 4.00000095,0 C1.79086,0 9.53674e-07,1.79086 9.53674e-07,4 C9.53674e-07,6.20914 1.79086,8 4.00000095,8 C4.82384,8 5.6929,8.14661 6.27544,8.72915 L9.16993,11.6236 C9.75572,12.2094 10.7055,12.2094 11.2913,11.6236 C11.877,11.0379 11.877,10.0881 11.2913,9.50232 L8.89017,7.10123 C8.10692,6.31798 8.00000095,5.10769 8.00000095,4 Z" id="Path"></path>
            <rect id="Rectangle" fill-rule="nonzero" transform="translate(23.500000, 17.500000) rotate(-180.000000) translate(-23.500000, -17.500000) " x="22" y="14" width="3" height="7"></rect>
        </g>
    </g>
</svg>